
        <svg version="1.0" xmlns="http://www.w3.org/2000/svg"
        width="500.000000pt" height="500.000000pt" viewBox="0 0 500.000000 500.000000"
        preserveAspectRatio="xMidYMid meet">

        <g transform="translate(0.000000,500.000000) scale(0.100000,-0.100000)"
        fill="#d81324" stroke="none">
        <path d="M3490 4771 c-40 -9 -91 -34 -108 -54 -6 -7 -476 -888 -1043 -1958
        l-1032 -1944 -12 -245 -11 -245 -32 -62 c-31 -60 -32 -65 -18 -97 8 -19 27
        -41 43 -50 50 -25 192 -47 348 -53 168 -6 239 5 323 54 26 14 127 108 227 209
        209 212 299 278 392 290 101 12 251 -3 463 -47 183 -37 220 -42 350 -43 166
        -1 192 6 385 99 143 69 597 392 625 446 21 39 -17 87 -59 74 -10 -3 -44 -28
        -76 -56 -263 -230 -549 -407 -735 -455 -105 -27 -247 -14 -550 51 -104 23
        -152 27 -290 29 -159 1 -167 0 -222 -26 -98 -46 -147 -86 -333 -272 -118 -119
        -201 -193 -240 -216 -58 -34 -62 -35 -165 -34 -58 0 -164 8 -237 18 l-132 18
        16 34 c12 24 72 74 213 179 l197 146 949 1788 c923 1742 949 1788 971 1778 13
        -6 23 -14 23 -19 0 -5 -155 -302 -345 -659 -190 -357 -345 -660 -345 -674 0
        -25 33 -55 61 -55 9 0 23 8 33 18 9 11 178 325 377 698 279 528 359 686 357
        709 -2 24 -12 35 -48 55 -93 51 -90 35 -27 151 62 117 74 161 57 214 -20 60
        -58 94 -169 149 -124 62 -135 66 -181 57z"/>
        </g>
        </svg>

    