
        <svg xmlns="http://www.w3.org/2000/svg" xmlns:xlink="http://www.w3.org/1999/xlink" width="500" zoomAndPan="magnify" viewBox="0 0 375 374.999991" height="500" preserveAspectRatio="xMidYMid meet" version="1.0"><defs><clipPath id="2318ce2a4a"><path d="M 91 16 L 290 16 L 290 365 L 91 365 Z M 91 16 " clip-rule="nonzero"/></clipPath><clipPath id="30bb271127"><path d="M 9.140625 92.859375 L 282.332031 9.078125 L 366.113281 282.273438 L 92.921875 366.050781 Z M 9.140625 92.859375 " clip-rule="nonzero"/></clipPath><clipPath id="e6e34d7efc"><path d="M 9.140625 92.859375 L 282.332031 9.078125 L 366.113281 282.273438 L 92.921875 366.050781 Z M 9.140625 92.859375 " clip-rule="nonzero"/></clipPath><clipPath id="144b5d6a8e"><path d="M 9.140625 92.859375 L 282.332031 9.078125 L 366.113281 282.273438 L 92.921875 366.050781 Z M 9.140625 92.859375 " clip-rule="nonzero"/></clipPath></defs><g clip-path="url(#2318ce2a4a)"><g clip-path="url(#30bb271127)"><g clip-path="url(#e6e34d7efc)"><g clip-path="url(#144b5d6a8e)"><path fill="#000000" d="M 281.535156 24.652344 L 269.886719 18.46875 C 263.507812 15.085938 255.441406 17.558594 251.84375 24.003906 L 98.339844 313.296875 C 98.195312 313.574219 98.195312 313.574219 98.257812 313.789062 L 98.113281 314.066406 C 98.175781 314.277344 97.964844 314.34375 98.03125 314.554688 C 98.09375 314.765625 97.882812 314.832031 97.949219 315.042969 L 96.316406 350.613281 L 92.339844 358.101562 C 91.164062 360.320312 91.945312 362.867188 94.164062 364.042969 C 95.0625 364.699219 96.253906 364.796875 97.3125 364.472656 C 98.375 364.148438 99.304688 363.398438 99.894531 362.289062 L 103.867188 354.796875 L 132.40625 333.507812 C 132.617188 333.441406 132.554688 333.230469 132.765625 333.164062 C 132.976562 333.097656 132.914062 332.886719 133.125 332.820312 L 133.273438 332.542969 C 133.484375 332.480469 133.417969 332.265625 133.632812 332.203125 L 275.652344 64.542969 L 279.539062 66.601562 L 227.585938 164.511719 C 226.40625 166.730469 227.1875 169.277344 229.40625 170.457031 C 230.515625 171.046875 231.707031 171.144531 232.769531 170.820312 C 233.832031 170.492188 234.761719 169.742188 235.351562 168.632812 L 289.363281 66.839844 C 289.953125 65.730469 290.050781 64.539062 289.726562 63.476562 C 289.402344 62.414062 288.652344 61.484375 287.542969 60.894531 L 279.496094 56.628906 L 286.855469 42.757812 C 290.601562 36.039062 288.128906 27.972656 281.535156 24.652344 Z M 281.535156 24.652344 " fill-opacity="1" fill-rule="nonzero"/></g></g></g></g></svg>
    